<?xml version="1.0" encoding="utf-8"?>
<svg xmlns="http://www.w3.org/2000/svg" style="margin: auto; background: none; display: block; shape-rendering: auto;" width="280" height="250" preserveAspectRatio="xMidYMid">
<style type="text/css">
  text {
    text-anchor: middle; font-size: 88px; opacity: 0;
  }
</style>
<g style="transform-origin: 140px 125px; transform: scale(1.35385);">
<g transform="translate(140,125)">
  <g transform="translate(0,0)"><g class="path" style="transform: scale(0.91); transform-origin: -75.425px -6.66817px; animation: 1s linear -0.5775s infinite normal forwards running breath-6445e406-89fb-43a9-b190-52a9d1b7dcd0;"><path d="M26.06 0L4.54 0L4.54-45.51L8.63-45.51L8.63-3.90L26.06-3.90L26.06 0" fill="#353535" stroke="none" stroke-width="none" transform="translate(-90.72500610351562,16.086829986572265)" style="fill: rgb(53, 53, 53);"></path></g><g class="path" style="transform: scale(0.91); transform-origin: -48.61px -0.16317px; animation: 1s linear -0.495s infinite normal forwards running breath-6445e406-89fb-43a9-b190-52a9d1b7dcd0;"><path d="M52.97-8.92L52.97-8.92L52.97-8.92Q52.97-6.95 52.23-5.21L52.23-5.21L52.23-5.21Q51.48-3.46 50.18-2.16L50.18-2.16L50.18-2.16Q48.88-0.86 47.13-0.11L47.13-0.11L47.13-0.11Q45.39 0.63 43.42 0.63L43.42 0.63L40.82 0.63L40.82 0.63Q38.85 0.63 37.10-0.11L37.10-0.11L37.10-0.11Q35.36-0.86 34.06-2.16L34.06-2.16L34.06-2.16Q32.75-3.46 32.01-5.21L32.01-5.21L32.01-5.21Q31.26-6.95 31.26-8.92L31.26-8.92L31.26-23.58L31.26-23.58Q31.26-25.55 32.01-27.29L32.01-27.29L32.01-27.29Q32.75-29.04 34.06-30.34L34.06-30.34L34.06-30.34Q35.36-31.64 37.10-32.39L37.10-32.39L37.10-32.39Q38.85-33.13 40.82-33.13L40.82-33.13L43.42-33.13L43.42-33.13Q45.39-33.13 47.13-32.39L47.13-32.39L47.13-32.39Q48.88-31.64 50.18-30.34L50.18-30.34L50.18-30.34Q51.48-29.04 52.23-27.29L52.23-27.29L52.23-27.29Q52.97-25.55 52.97-23.58L52.97-23.58L52.97-8.92zM49.07-8.70L49.07-23.80L49.07-23.80Q49.07-24.98 48.62-26.01L48.62-26.01L48.62-26.01Q48.18-27.04 47.42-27.80L47.42-27.80L47.42-27.80Q46.66-28.56 45.62-29.01L45.62-29.01L45.62-29.01Q44.59-29.45 43.42-29.45L43.42-29.45L40.82-29.45L40.82-29.45Q39.64-29.45 38.61-29.01L38.61-29.01L38.61-29.01Q37.58-28.56 36.82-27.80L36.82-27.80L36.82-27.80Q36.05-27.04 35.61-26.01L35.61-26.01L35.61-26.01Q35.17-24.98 35.17-23.80L35.17-23.80L35.17-8.70L35.17-8.70Q35.17-7.52 35.61-6.49L35.61-6.49L35.61-6.49Q36.05-5.46 36.82-4.70L36.82-4.70L36.82-4.70Q37.58-3.94 38.61-3.49L38.61-3.49L38.61-3.49Q39.64-3.05 40.82-3.05L40.82-3.05L43.42-3.05L43.42-3.05Q44.59-3.05 45.62-3.49L45.62-3.49L45.62-3.49Q46.66-3.94 47.42-4.70L47.42-4.70L47.42-4.70Q48.18-5.46 48.62-6.49L48.62-6.49L48.62-6.49Q49.07-7.52 49.07-8.70L49.07-8.70" fill="#353535" stroke="none" stroke-width="none" transform="translate(-90.72500610351562,16.086829986572265)" style="fill: rgb(102, 102, 102);"></path></g><g class="path" style="transform: scale(0.91); transform-origin: -19.09px -0.16317px; animation: 1s linear -0.4125s infinite normal forwards running breath-6445e406-89fb-43a9-b190-52a9d1b7dcd0;"><path d="M82.49 0L81.19 0L79.03-3.24L79.03-3.24Q77.70-1.49 75.70-0.43L75.70-0.43L75.70-0.43Q73.70 0.63 71.32 0.63L71.32 0.63L70.33 0.63L70.33 0.63Q68.36 0.63 66.62-0.11L66.62-0.11L66.62-0.11Q64.87-0.86 63.57-2.16L63.57-2.16L63.57-2.16Q62.27-3.46 61.52-5.21L61.52-5.21L61.52-5.21Q60.78-6.95 60.78-8.92L60.78-8.92L60.78-9.24L60.78-9.24Q60.78-11.20 61.52-12.95L61.52-12.95L61.52-12.95Q62.27-14.69 63.57-16.00L63.57-16.00L63.57-16.00Q64.87-17.30 66.62-18.04L66.62-18.04L66.62-18.04Q68.36-18.79 70.33-18.79L70.33-18.79L78.58-18.79L78.58-23.80L78.58-23.80Q78.58-24.98 78.14-26.01L78.14-26.01L78.14-26.01Q77.70-27.04 76.93-27.80L76.93-27.80L76.93-27.80Q76.17-28.56 75.14-29.01L75.14-29.01L75.14-29.01Q74.11-29.45 72.93-29.45L72.93-29.45L70.65-29.45L70.65-29.45Q69.48-29.45 68.44-29.01L68.44-29.01L68.44-29.01Q67.41-28.56 66.65-27.80L66.65-27.80L66.65-27.80Q65.89-27.04 65.44-26.01L65.44-26.01L65.44-26.01Q65-24.98 65-23.80L65-23.80L65-22.63L61.10-23.26L61.10-23.58L61.10-23.58Q61.10-25.55 61.84-27.29L61.84-27.29L61.84-27.29Q62.59-29.04 63.89-30.34L63.89-30.34L63.89-30.34Q65.19-31.64 66.94-32.39L66.94-32.39L66.94-32.39Q68.68-33.13 70.65-33.13L70.65-33.13L72.93-33.13L72.93-33.13Q74.90-33.13 76.65-32.39L76.65-32.39L76.65-32.39Q78.39-31.64 79.69-30.34L79.69-30.34L79.69-30.34Q81.00-29.04 81.74-27.29L81.74-27.29L81.74-27.29Q82.49-25.55 82.49-23.58L82.49-23.58L82.49 0zM78.58-8.70L78.58-15.74L70.33-15.74L70.33-15.74Q69.16-15.74 68.13-15.30L68.13-15.30L68.13-15.30Q67.09-14.85 66.33-14.08L66.33-14.08L66.33-14.08Q65.57-13.30 65.13-12.27L65.13-12.27L65.13-12.27Q64.68-11.24 64.68-10.06L64.68-10.06L64.68-8.70L64.68-8.70Q64.68-7.52 65.13-6.49L65.13-6.49L65.13-6.49Q65.57-5.46 66.33-4.70L66.33-4.70L66.33-4.70Q67.09-3.94 68.13-3.49L68.13-3.49L68.13-3.49Q69.16-3.05 70.33-3.05L70.33-3.05L72.93-3.05L72.93-3.05Q74.11-3.05 75.14-3.49L75.14-3.49L75.14-3.49Q76.17-3.94 76.93-4.70L76.93-4.70L76.93-4.70Q77.70-5.46 78.14-6.49L78.14-6.49L78.14-6.49Q78.58-7.52 78.58-8.70L78.58-8.70" fill="#353535" stroke="none" stroke-width="none" transform="translate(-90.72500610351562,16.086829986572265)" style="fill: rgb(155, 155, 155);"></path></g><g class="path" style="transform: scale(0.91); transform-origin: 10.425px -6.35317px; animation: 1s linear -0.33s infinite normal forwards running breath-6445e406-89fb-43a9-b190-52a9d1b7dcd0;"><path d="M112.00 0L110.70 0L108.54-3.30L108.54-3.30Q107.21-1.49 105.21-0.43L105.21-0.43L105.21-0.43Q103.21 0.63 100.83 0.63L100.83 0.63L99.85 0.63L99.85 0.63Q97.88 0.63 96.14-0.11L96.14-0.11L96.14-0.11Q94.39-0.86 93.09-2.16L93.09-2.16L93.09-2.16Q91.79-3.46 91.04-5.21L91.04-5.21L91.04-5.21Q90.30-6.95 90.30-8.92L90.30-8.92L90.30-23.58L90.30-23.58Q90.30-25.55 91.04-27.29L91.04-27.29L91.04-27.29Q91.79-29.04 93.09-30.34L93.09-30.34L93.09-30.34Q94.39-31.64 96.14-32.39L96.14-32.39L96.14-32.39Q97.88-33.13 99.85-33.13L99.85-33.13L100.83-33.13L100.83-33.13Q103.02-33.13 104.90-32.25L104.90-32.25L104.90-32.25Q106.77-31.36 108.10-29.77L108.10-29.77L108.10-45.51L112.00-45.51L112.00 0zM108.10-8.70L108.10-23.80L108.10-23.80Q108.10-24.98 107.66-26.01L107.66-26.01L107.66-26.01Q107.21-27.04 106.45-27.80L106.45-27.80L106.45-27.80Q105.69-28.56 104.66-29.01L104.66-29.01L104.66-29.01Q103.63-29.45 102.45-29.45L102.45-29.45L99.85-29.45L99.85-29.45Q98.67-29.45 97.64-29.01L97.64-29.01L97.64-29.01Q96.61-28.56 95.85-27.80L95.85-27.80L95.85-27.80Q95.09-27.04 94.64-26.01L94.64-26.01L94.64-26.01Q94.20-24.98 94.20-23.80L94.20-23.80L94.20-8.70L94.20-8.70Q94.20-7.52 94.64-6.49L94.64-6.49L94.64-6.49Q95.09-5.46 95.85-4.70L95.85-4.70L95.85-4.70Q96.61-3.94 97.64-3.49L97.64-3.49L97.64-3.49Q98.67-3.05 99.85-3.05L99.85-3.05L102.45-3.05L102.45-3.05Q103.63-3.05 104.66-3.49L104.66-3.49L104.66-3.49Q105.69-3.94 106.45-4.70L106.45-4.70L106.45-4.70Q107.21-5.46 107.66-6.49L107.66-6.49L107.66-6.49Q108.10-7.52 108.10-8.70L108.10-8.70" fill="#353535" stroke="none" stroke-width="none" transform="translate(-90.72500610351562,16.086829986572265)" style="fill: rgb(53, 53, 53);"></path></g><g class="path" style="transform: scale(0.91); transform-origin: 32.34px -26.8232px; animation: 1s linear -0.2475s infinite normal forwards running breath-6445e406-89fb-43a9-b190-52a9d1b7dcd0;"><path d="M125.33-40.31L120.80-40.31L120.80-45.51L125.33-45.51L125.33-40.31" fill="#353535" stroke="none" stroke-width="none" transform="translate(-90.72500610351562,16.086829986572265)" style="fill: rgb(102, 102, 102);"></path></g><g class="path" style="transform: scale(0.91); transform-origin: 32.34px -0.16317px; animation: 1s linear -0.165s infinite normal forwards running breath-6445e406-89fb-43a9-b190-52a9d1b7dcd0;"><path d="M125.02 0L121.11 0L121.11-32.50L125.02-32.50L125.02 0" fill="#353535" stroke="none" stroke-width="none" transform="translate(-90.72500610351562,16.086829986572265)" style="fill: rgb(155, 155, 155);"></path></g><g class="path" style="transform: scale(0.91); transform-origin: 54.255px -0.47817px; animation: 1s linear -0.0825s infinite normal forwards running breath-6445e406-89fb-43a9-b190-52a9d1b7dcd0;"><path d="M155.83 0L151.93 0L151.93-23.80L151.93-23.80Q151.93-24.98 151.49-26.01L151.49-26.01L151.49-26.01Q151.04-27.04 150.28-27.80L150.28-27.80L150.28-27.80Q149.52-28.56 148.49-29.01L148.49-29.01L148.49-29.01Q147.46-29.45 146.28-29.45L146.28-29.45L143.68-29.45L143.68-29.45Q142.50-29.45 141.47-29.01L141.47-29.01L141.47-29.01Q140.44-28.56 139.68-27.80L139.68-27.80L139.68-27.80Q138.92-27.04 138.47-26.01L138.47-26.01L138.47-26.01Q138.03-24.98 138.03-23.80L138.03-23.80L138.03 0L134.13 0L134.13-32.50L135.43-32.50L137.55-29.20L137.55-29.20Q138.89-31.01 140.90-32.07L140.90-32.07L140.90-32.07Q142.92-33.13 145.30-33.13L145.30-33.13L146.28-33.13L146.28-33.13Q148.25-33.13 150.00-32.39L150.00-32.39L150.00-32.39Q151.74-31.64 153.04-30.34L153.04-30.34L153.04-30.34Q154.34-29.04 155.09-27.29L155.09-27.29L155.09-27.29Q155.83-25.55 155.83-23.58L155.83-23.58L155.83 0" fill="#353535" stroke="none" stroke-width="none" transform="translate(-90.72500610351562,16.086829986572265)" style="fill: rgb(53, 53, 53);"></path></g><g class="path" style="transform: scale(0.91); transform-origin: 84.09px 6.02683px; animation: 1s linear 0s infinite normal forwards running breath-6445e406-89fb-43a9-b190-52a9d1b7dcd0;"><path d="M185.67 4.09L185.67 4.09L185.67 4.09Q185.67 6.06 184.92 7.71L184.92 7.71L184.92 7.71Q184.18 9.36 182.88 10.54L182.88 10.54L182.88 10.54Q181.57 11.71 179.83 12.36L179.83 12.36L179.83 12.36Q178.08 13.01 176.12 13.01L176.12 13.01L174.50 13.01L174.50 13.01Q172.53 13.01 170.78 12.36L170.78 12.36L170.78 12.36Q169.04 11.71 167.74 10.54L167.74 10.54L167.74 10.54Q166.44 9.36 165.69 7.71L165.69 7.71L165.69 7.71Q164.94 6.06 164.94 4.09L164.94 4.09L164.94 3.97L164.94 3.97Q164.94 2.06 165.64 0.48L165.64 0.48L165.64 0.48Q166.34-1.11 167.55-2.29L167.55-2.29L167.55-2.29Q166.02-3.21 165.12-4.78L165.12-4.78L165.12-4.78Q164.21-6.35 164.21-8.25L164.21-8.25L164.21-8.25Q164.21-9.97 164.94-11.44L164.94-11.44L164.94-11.44Q165.67-12.92 166.94-13.84L166.94-13.84L166.94-13.84Q165.42-15.17 164.53-17.04L164.53-17.04L164.53-17.04Q163.64-18.92 163.64-21.14L163.64-21.14L163.64-23.58L163.64-23.58Q163.64-25.55 164.39-27.29L164.39-27.29L164.39-27.29Q165.13-29.04 166.44-30.34L166.44-30.34L166.44-30.34Q167.74-31.64 169.48-32.39L169.48-32.39L169.48-32.39Q171.23-33.13 173.20-33.13L173.20-33.13L174.81-33.13L174.81-33.13Q177.19-33.13 179.21-32.07L179.21-32.07L179.21-32.07Q181.23-31.01 182.56-29.20L182.56-29.20L184.69-32.50L185.99-32.50L185.99-21.14L185.99-21.14Q185.99-19.17 185.24-17.42L185.24-17.42L185.24-17.42Q184.49-15.68 183.19-14.38L183.19-14.38L183.19-14.38Q181.89-13.08 180.15-12.33L180.15-12.33L180.15-12.33Q178.40-11.58 176.43-11.58L176.43-11.58L170.78-11.58L170.78-11.58Q170.12-11.58 169.51-11.31L169.51-11.31L169.51-11.31Q168.91-11.04 168.45-10.60L168.45-10.60L168.45-10.60Q167.99-10.16 167.74-9.54L167.74-9.54L167.74-9.54Q167.48-8.92 167.48-8.25L167.48-8.25L167.48-8.25Q167.48-7.59 167.74-6.98L167.74-6.98L167.74-6.98Q167.99-6.38 168.45-5.92L168.45-5.92L168.45-5.92Q168.91-5.46 169.51-5.21L169.51-5.21L169.51-5.21Q170.12-4.95 170.78-4.95L170.78-4.95L176.12-4.95L176.12-4.95Q178.08-4.95 179.83-4.30L179.83-4.30L179.83-4.30Q181.57-3.65 182.88-2.48L182.88-2.48L182.88-2.48Q184.18-1.30 184.92 0.35L184.92 0.35L184.92 0.35Q185.67 2.00 185.67 3.97L185.67 3.97L185.67 4.09zM182.11-20.92L182.11-23.80L182.11-23.80Q182.11-24.98 181.67-26.01L181.67-26.01L181.67-26.01Q181.23-27.04 180.45-27.80L180.45-27.80L180.45-27.80Q179.67-28.56 178.64-29.01L178.64-29.01L178.64-29.01Q177.61-29.45 176.43-29.45L176.43-29.45L173.20-29.45L173.20-29.45Q172.02-29.45 170.99-29.01L170.99-29.01L170.99-29.01Q169.96-28.56 169.20-27.80L169.20-27.80L169.20-27.80Q168.44-27.04 167.99-26.01L167.99-26.01L167.99-26.01Q167.55-24.98 167.55-23.80L167.55-23.80L167.55-20.92L167.55-20.92Q167.55-19.74 167.99-18.71L167.99-18.71L167.99-18.71Q168.44-17.68 169.20-16.92L169.20-16.92L169.20-16.92Q169.96-16.15 170.99-15.71L170.99-15.71L170.99-15.71Q172.02-15.27 173.20-15.27L173.20-15.27L176.43-15.27L176.43-15.27Q177.61-15.27 178.64-15.71L178.64-15.71L178.64-15.71Q179.67-16.15 180.45-16.92L180.45-16.92L180.45-16.92Q181.23-17.68 181.67-18.71L181.67-18.71L181.67-18.71Q182.11-19.74 182.11-20.92L182.11-20.92zM181.96 4.28L181.96 3.78L181.96 3.78Q181.96 2.60 181.51 1.67L181.51 1.67L181.51 1.67Q181.07 0.73 180.31 0.10L180.31 0.10L180.31 0.10Q179.54-0.54 178.51-0.89L178.51-0.89L178.51-0.89Q177.48-1.24 176.31-1.24L176.31-1.24L174.31-1.24L174.31-1.24Q173.13-1.24 172.10-0.89L172.10-0.89L172.10-0.89Q171.07-0.54 170.31 0.10L170.31 0.10L170.31 0.10Q169.55 0.73 169.10 1.67L169.10 1.67L169.10 1.67Q168.66 2.60 168.66 3.78L168.66 3.78L168.66 4.28L168.66 4.28Q168.66 5.46 169.10 6.38L169.10 6.38L169.10 6.38Q169.55 7.30 170.31 7.95L170.31 7.95L170.31 7.95Q171.07 8.60 172.10 8.95L172.10 8.95L172.10 8.95Q173.13 9.30 174.31 9.30L174.31 9.30L176.31 9.30L176.31 9.30Q177.48 9.30 178.51 8.95L178.51 8.95L178.51 8.95Q179.54 8.60 180.31 7.95L180.31 7.95L180.31 7.95Q181.07 7.30 181.51 6.38L181.51 6.38L181.51 6.38Q181.96 5.46 181.96 4.28L181.96 4.28" fill="#353535" stroke="none" stroke-width="none" transform="translate(-90.72500610351562,16.086829986572265)" style="fill: rgb(102, 102, 102);"></path></g></g>
</g>
</g>
<style id="breath-6445e406-89fb-43a9-b190-52a9d1b7dcd0" data-anikit="">@keyframes breath-6445e406-89fb-43a9-b190-52a9d1b7dcd0
{
  0% {
    animation-timing-function: cubic-bezier(0.9647,0.2413,-0.0705,0.7911);
    transform: scale(0.9099999999999999);
  }
  51% {
    animation-timing-function: cubic-bezier(0.9226,0.2631,-0.0308,0.7628);
    transform: scale(1.02994);
  }
  100% {
    transform: scale(0.9099999999999999);
  }
}</style></svg>